<mxfile host="app.diagrams.net" modified="2023-06-12T19:57:58.594Z" agent="Mozilla/5.0 (Windows NT 10.0; Win64; x64; rv:109.0) Gecko/20100101 Firefox/113.0" version="21.3.8" etag="j7iv0fRilYLhy7K2vSMF" type="github">
  <diagram name="Page-1" id="I9qv2tfWLpM3EtITq3Id">
    <mxGraphModel>
      <root>
        <mxCell id="0" />
        <mxCell id="1" parent="0" />
      </root>
    </mxGraphModel>
  </diagram>
</mxfile>
